<svg width="45" height="20" viewBox="0 0 45 20" fill="none" xmlns="http://www.w3.org/2000/svg">
<path d="M8.50425 2.46192C9.03413 1.79927 9.39398 0.909535 9.29849 0C8.52288 0.038431 7.57607 0.51125 7.02872 1.17506C6.53727 1.74337 6.10172 2.67038 6.21468 3.54148C7.08579 3.61718 7.95457 3.10593 8.50425 2.46192Z" fill="black"/>
<path d="M9.2893 3.71212C8.02457 3.63643 6.94966 4.4295 6.34641 4.4295C5.74316 4.4295 4.81733 3.74939 3.81812 3.76802C2.51612 3.78666 1.30846 4.52267 0.64814 5.69307C-0.710923 8.03503 0.289438 11.5078 1.61123 13.4154C2.25292 14.3587 3.0262 15.3975 4.04521 15.3602C5.00831 15.323 5.38564 14.7372 6.55488 14.7372C7.72411 14.7372 8.06417 15.3602 9.08317 15.3416C10.1394 15.323 10.8009 14.3971 11.4426 13.4526C12.1786 12.3766 12.4803 11.3389 12.4989 11.2819C12.4803 11.2632 10.4609 10.4888 10.4422 8.16663C10.4236 6.22179 12.0272 5.29711 12.1029 5.24005C11.1969 3.90079 9.78192 3.74939 9.29164 3.71096" fill="black"/>
<path d="M20.298 1.07812C23.0464 1.07812 24.9598 2.97289 24.9598 5.73061C24.9598 8.48832 23.0068 10.4029 20.2293 10.4029H17.1863V15.2417H14.9875V1.07812H20.2968H20.298ZM17.1863 8.55703H19.7087C21.6221 8.55703 22.7122 7.52638 22.7122 5.73992C22.7122 3.95346 21.6233 2.9333 19.7192 2.9333H17.1874V8.55703H17.1863Z" fill="black"/>
<path d="M25.5341 12.3072C25.5341 10.5009 26.9176 9.39227 29.3713 9.25485L32.1978 9.08831V8.29291C32.1978 7.14464 31.4222 6.45754 30.1272 6.45754C28.8997 6.45754 28.1346 7.04681 27.9482 7.96916H25.9463C26.0639 6.10467 27.6536 4.73047 30.2063 4.73047C32.7591 4.73047 34.3091 6.05576 34.3091 8.12637V15.2419H32.277V13.544H32.228C31.6294 14.6923 30.324 15.4189 28.9696 15.4189C26.9479 15.4189 25.5341 14.1624 25.5341 12.3072ZM32.1978 11.3744V10.5603L29.6555 10.7176C28.3896 10.8061 27.6734 11.3651 27.6734 12.249C27.6734 13.1329 28.4187 13.7408 29.5577 13.7408C31.0402 13.7408 32.1978 12.7195 32.1978 11.3755V11.3744Z" fill="black"/>
<path d="M36.2259 19.0398V17.3221C36.3831 17.3617 36.7359 17.3617 36.913 17.3617C37.8947 17.3617 38.4246 16.9494 38.7484 15.8896C38.7484 15.8698 38.9347 15.2619 38.9347 15.2514L35.2057 4.91699H37.5023L40.1133 13.3182H40.1517L42.7627 4.91699H44.9999L41.1323 15.7813C40.2495 18.284 39.2282 19.0887 37.0888 19.0887C36.9118 19.0887 36.3819 19.0689 36.2247 19.0398H36.2259Z" fill="black"/>
</svg>
