<svg width="45" height="28" viewBox="0 0 45 28" fill="none" xmlns="http://www.w3.org/2000/svg">
<path d="M0 27.8333V21.333H2.00571C3.46401 21.333 4.40149 21.8804 4.40149 23.014C4.40149 23.6545 4.10451 24.1 3.68675 24.3604C4.29068 24.6386 4.64306 25.1771 4.64306 25.9107C4.64306 27.2205 3.68675 27.8333 2.20074 27.8333H0ZM1.29097 24.0357H2.24729C2.83238 24.0357 3.08281 23.7476 3.08281 23.219C3.08281 22.6528 2.62737 22.4666 2.01458 22.4666H1.28986V24.0357H1.29097ZM1.29097 26.7008H2.08993C2.87005 26.7008 3.3255 26.5058 3.3255 25.893C3.3255 25.2802 2.93543 25.0386 2.20185 25.0386H1.29208V26.7008H1.29097ZM7.14633 27.9452C5.87419 27.9452 5.23369 27.3236 5.23369 26.4869C5.23369 25.5672 5.98611 25.0286 7.09978 25.0198C7.36019 25.0198 7.69374 25.0574 7.92645 25.094V24.8713C7.92645 24.305 7.60177 24.0357 6.979 24.0357C6.5701 24.0357 6.13349 24.1011 5.75341 24.2585L5.52181 23.2556C5.92073 23.0883 6.56234 22.9775 7.12859 22.9775C8.49381 22.9775 9.17198 23.7022 9.17198 24.9555V27.5374C8.79079 27.7325 8.07605 27.9463 7.14743 27.9463L7.14633 27.9452ZM7.92645 26.8958V25.9018C7.71258 25.8553 7.48984 25.8276 7.26711 25.8276C6.84048 25.8276 6.50583 25.9949 6.50583 26.4315C6.50583 26.8216 6.78397 27.0255 7.27708 27.0255C7.55522 27.0255 7.78793 26.9701 7.92755 26.8958H7.92645ZM10.0729 27.8333V23.3853C10.658 23.1348 11.4569 22.9764 12.1717 22.9764C13.5269 22.9764 14.3071 23.6446 14.3071 24.8801V27.8333H13.0261V24.9732C13.0261 24.3327 12.7291 24.0357 12.1628 24.0357C11.8658 24.0357 11.5866 24.0911 11.3461 24.2031V27.8333H10.074H10.0729ZM18.785 23.2556L18.5434 24.2673C18.191 24.1188 17.8099 24.0346 17.494 24.0346C16.7416 24.0346 16.3338 24.5643 16.3338 25.4364C16.3338 26.3927 16.7605 26.8847 17.5594 26.8847C17.8664 26.8847 18.2376 26.8016 18.59 26.6432L18.7939 27.6737C18.4781 27.8311 17.9949 27.943 17.4564 27.943C15.915 27.943 15.024 26.9867 15.024 25.473C15.024 23.9593 15.9061 22.9753 17.3821 22.9753C17.9118 22.9753 18.4404 23.096 18.7839 23.2534L18.785 23.2556ZM21.5531 27.9452C20.1236 27.9452 19.2316 26.9512 19.2316 25.4564C19.2316 23.9615 20.1225 22.9775 21.5531 22.9775C22.9837 22.9775 23.8658 23.9715 23.8658 25.4564C23.8658 26.9412 22.9926 27.9452 21.5531 27.9452ZM21.5531 26.887C22.2124 26.887 22.556 26.3395 22.556 25.4575C22.556 24.5754 22.2124 24.0368 21.5531 24.0368C20.8938 24.0368 20.5414 24.5843 20.5414 25.4575C20.5414 26.3307 20.9037 26.887 21.5531 26.887ZM24.6071 27.8344V23.3864C25.1922 23.1359 25.9912 22.9775 26.7059 22.9775C28.0612 22.9775 28.8413 23.6457 28.8413 24.8812V27.8344H27.5603V24.9743C27.5603 24.3338 27.2633 24.0368 26.697 24.0368C26.4001 24.0368 26.1208 24.0923 25.8804 24.2042V27.8344H24.6082H24.6071ZM31.7313 27.9463C30.6265 27.9463 30.0602 27.3424 30.0602 26.1168V24.1111H29.4286V23.0894H30.0602V22.0588L31.3412 21.9935V23.0894H32.3718V24.1111H31.3412V26.098C31.3412 26.6365 31.564 26.887 31.9817 26.887C32.1767 26.887 32.3529 26.8592 32.4737 26.8315L32.5391 27.8621C32.3164 27.9175 32.0194 27.9452 31.7313 27.9452V27.9463ZM34.9659 27.9463C33.6938 27.9463 33.0533 27.3247 33.0533 26.488C33.0533 25.5683 33.8057 25.0297 34.9194 25.0209C35.1798 25.0209 35.5133 25.0585 35.746 25.0951V24.8724C35.746 24.3061 35.4213 24.0368 34.7986 24.0368C34.3897 24.0368 33.9531 24.1022 33.573 24.2596L33.3414 23.2567C33.7403 23.0894 34.3819 22.9786 34.9482 22.9786C36.3134 22.9786 36.9916 23.7033 36.9916 24.9566V27.5385C36.6104 27.7336 35.8956 27.9474 34.967 27.9474L34.9659 27.9463ZM35.746 26.8969V25.9029C35.5322 25.8564 35.3094 25.8287 35.0867 25.8287C34.6601 25.8287 34.3254 25.996 34.3254 26.4326C34.3254 26.8227 34.6035 27.0266 35.0967 27.0266C35.3748 27.0266 35.6075 26.9712 35.7471 26.8969H35.746ZM41.3742 23.2567L41.1326 24.2684C40.7803 24.12 40.3991 24.0357 40.0832 24.0357C39.3308 24.0357 38.923 24.5654 38.923 25.4375C38.923 26.3938 39.3497 26.8858 40.1486 26.8858C40.4556 26.8858 40.8268 26.8027 41.1792 26.6443L41.3831 27.6748C41.0673 27.8322 40.5841 27.9441 40.0456 27.9441C38.5042 27.9441 37.6121 26.9878 37.6121 25.4741C37.6121 23.9604 38.4942 22.9764 39.9702 22.9764C40.4999 22.9764 41.0285 23.0971 41.372 23.2545L41.3742 23.2567ZM44.1911 27.9463C43.0863 27.9463 42.52 27.3424 42.52 26.1168V24.1111H41.8884V23.0894H42.52V22.0588L43.801 21.9935V23.0894H44.8316V24.1111H43.801V26.098C43.801 26.6365 44.0238 26.887 44.4415 26.887C44.6366 26.887 44.8127 26.8592 44.9335 26.8315L44.9989 27.8621C44.7762 27.9175 44.4792 27.9452 44.1911 27.9452V27.9463Z" fill="#1E3764"/>
<path d="M8.93928 18.0813C15.7199 18.0813 19.1108 13.5612 22.5006 9.04004H0V18.0813H8.93928Z" fill="url(#paint0_linear_212_1146)"/>
<path d="M36.0618 0C29.2811 0 25.8903 4.52006 22.5005 9.04123H44.9999V0H36.0618Z" fill="url(#paint1_linear_212_1146)"/>
<defs>
<linearGradient id="paint0_linear_212_1146" x1="4.55109" y1="13.9779" x2="21.0112" y2="7.86431" gradientUnits="userSpaceOnUse">
<stop stop-color="#005AB9"/>
<stop offset="1" stop-color="#1E3764"/>
</linearGradient>
<linearGradient id="paint1_linear_212_1146" x1="23.8624" y1="9.82579" x2="41.3398" y2="3.86294" gradientUnits="userSpaceOnUse">
<stop stop-color="#FBA900"/>
<stop offset="1" stop-color="#FFD800"/>
</linearGradient>
</defs>
</svg>
