<svg width="29" height="25" viewBox="0 0 29 25" fill="none" xmlns="http://www.w3.org/2000/svg">
<g clip-path="url(#clip0_212_1157)">
<path d="M4.6875 17.5781C4.6875 17.3633 4.8623 17.1875 5.07812 17.1875H8.98438C9.19922 17.1875 9.375 17.3633 9.375 17.5781C9.375 17.793 9.19922 17.9688 8.98438 17.9688H5.07812C4.8623 17.9688 4.6875 17.793 4.6875 17.5781ZM10.9375 17.5781C10.9375 17.3633 11.1133 17.1875 11.3281 17.1875H18.3594C18.5742 17.1875 18.75 17.3633 18.75 17.5781C18.75 17.793 18.5742 17.9688 18.3594 17.9688H11.3281C11.1133 17.9688 10.9375 17.793 10.9375 17.5781ZM0 4.6875C0 2.96143 1.39893 1.5625 3.125 1.5625H25C26.7236 1.5625 28.125 2.96143 28.125 4.6875V20.3125C28.125 22.0361 26.7236 23.4375 25 23.4375H3.125C1.39893 23.4375 0 22.0361 0 20.3125V4.6875ZM0.78125 4.6875V7.25H27.3438V4.6875C27.3438 3.39307 26.2939 2.34375 25 2.34375H3.125C1.83057 2.34375 0.78125 3.39307 0.78125 4.6875ZM0.78125 8.03125V9.71875H27.3438V8.03125H0.78125ZM0.78125 20.3125C0.78125 21.6064 1.83057 22.6562 3.125 22.6562H25C26.2939 22.6562 27.3438 21.6064 27.3438 20.3125V10.5H0.78125V20.3125Z" fill="black"/>
<rect y="8" width="28" height="2" fill="black"/>
</g>
<defs>
<clipPath id="clip0_212_1157">
<rect width="28.125" height="25" fill="white"/>
</clipPath>
</defs>
</svg>
