<svg width="45" height="18" viewBox="0 0 45 18" fill="none" xmlns="http://www.w3.org/2000/svg">
<path d="M21.0031 8.5877V13.7934H19.3508V0.938477H23.7309C24.8409 0.938477 25.7869 1.3088 26.5619 2.04842C27.3532 2.78805 27.7498 3.69159 27.7498 4.75904C27.7498 5.82649 27.3542 6.75533 26.5619 7.48686C25.796 8.21839 24.85 8.57961 23.7309 8.57961H21.0031V8.58871V8.5877ZM21.0031 2.52195V7.00524H23.7653C24.419 7.00524 24.9704 6.78163 25.4004 6.34251C25.8395 5.90339 26.0631 5.37017 26.0631 4.76815C26.0631 4.16612 25.8395 3.64909 25.4004 3.21098C24.9704 2.75466 24.4281 2.53105 23.7653 2.53105H21.0031V2.52195Z" fill="black"/>
<path d="M32.0682 4.70801C33.2905 4.70801 34.2537 5.03482 34.959 5.68844C35.6642 6.34207 36.0173 7.23751 36.0173 8.37276V13.793H34.4429V12.5707H34.3741C33.6942 13.5775 32.7826 14.0763 31.6463 14.0763C30.674 14.0763 29.8655 13.792 29.2109 13.2163C28.5563 12.6405 28.2305 11.9252 28.2305 11.0652C28.2305 10.1535 28.5745 9.43009 29.2625 8.89687C29.9505 8.35454 30.8713 8.08844 32.0156 8.08844C32.9961 8.08844 33.8055 8.26955 34.4338 8.63077V8.25235C34.4338 7.67563 34.2102 7.19401 33.7539 6.78929C33.2976 6.38456 32.7644 6.18726 32.1532 6.18726C31.2325 6.18726 30.501 6.57478 29.9677 7.35792L28.5138 6.44628C29.3141 5.28473 30.501 4.70801 32.0672 4.70801H32.0682ZM29.9343 11.0925C29.9343 11.5225 30.1155 11.8837 30.4848 12.168C30.846 12.4523 31.276 12.598 31.7667 12.598C32.4638 12.598 33.0831 12.34 33.6254 11.824C34.1677 11.308 34.4429 10.705 34.4429 10.0088C33.9269 9.60412 33.2126 9.39771 32.2918 9.39771C31.621 9.39771 31.0615 9.56163 30.6143 9.87933C30.158 10.2153 29.9343 10.619 29.9343 11.0925Z" fill="black"/>
<path d="M45 4.99316L39.4928 17.6589H37.7889L39.8368 13.2272L36.2054 4.99316H38.0034L40.6189 11.3088H40.6533L43.2 4.99316H44.998H45Z" fill="black"/>
<path d="M14.4314 7.53739C14.4314 6.99911 14.3828 6.48309 14.2938 5.9873H7.36902V8.82642H11.3575C11.1957 9.77246 10.6756 10.5779 9.87728 11.1141V12.9566H12.251C13.6371 11.6736 14.4314 9.77752 14.4314 7.53637V7.53739Z" fill="#4285F4"/>
<path d="M9.87827 11.1155C9.21756 11.5617 8.36663 11.8218 7.37101 11.8218C5.44758 11.8218 3.81655 10.5257 3.23274 8.7793H0.78418V10.6795C1.99733 13.0865 4.49041 14.7388 7.37203 14.7388C9.36326 14.7388 11.0358 14.0842 12.253 12.957L9.87928 11.1155H9.87827Z" fill="#34A853"/>
<path d="M3.00201 7.37018C3.00201 6.87946 3.08397 6.40594 3.23271 5.95973V4.05957H0.784146C0.282292 5.05518 0 6.17929 0 7.36917C0 8.55905 0.283304 9.68417 0.784146 10.6788L3.23271 8.77861C3.08397 8.33241 3.00201 7.85889 3.00201 7.36816V7.37018Z" fill="#FABB05"/>
<path d="M7.37102 2.91703C8.45769 2.91703 9.43105 3.29139 10.199 4.02293L12.3025 1.9204C11.0246 0.730522 9.35921 0 7.37102 0C4.49144 0 1.99635 1.65227 0.783203 4.05935L3.23176 5.95952C3.81556 4.21315 5.44759 2.91703 7.37001 2.91703H7.37102Z" fill="#E94235"/>
</svg>
