<svg width="45" height="40" viewBox="0 0 45 40" fill="none" xmlns="http://www.w3.org/2000/svg">
<path d="M0 2.94076V36.7234C0 38.3407 1.32346 39.6642 2.94076 39.6642H23.125C38.385 39.6642 45 31.1229 45 19.7878C45 8.45266 38.3839 0 23.125 0H2.94076C1.32346 0 0 1.32346 0 2.94076Z" fill="white"/>
<path d="M13.5098 8.29215V33.2548H24.3738C34.2385 33.2548 38.5167 27.6835 38.5167 19.8033C38.5167 11.9232 34.2385 6.41016 24.3738 6.41016H15.3918C14.3482 6.41016 13.5098 7.26253 13.5098 8.29215Z" fill="#CC0066"/>
<path d="M23.1249 36.9749H5.57118C4.01334 36.9749 2.74817 35.7109 2.74817 34.1519V5.52905C2.74817 3.97121 4.01217 2.70605 5.57118 2.70605H23.1249C39.7819 2.70605 42.2655 13.4232 42.2655 19.8038C42.2655 30.8742 35.4593 36.9749 23.1249 36.9749ZM5.57118 3.64705C4.52757 3.64705 3.68918 4.48544 3.68918 5.52905V34.1519C3.68918 35.1955 4.52757 36.0339 5.57118 36.0339H23.1249C34.8565 36.0339 41.3245 30.2713 41.3245 19.8038C41.3245 5.74943 29.9159 3.64705 23.1249 3.64705H5.57118Z" fill="black"/>
<path d="M17.332 16.4351C17.7145 16.4351 18.0666 16.4934 18.4048 16.6112C18.7429 16.7289 19.0228 16.9202 19.2723 17.1545C19.5078 17.4041 19.699 17.7131 19.846 18.0664C19.9777 18.4337 20.0523 18.8605 20.0523 19.3595C20.0523 19.8003 19.994 20.1979 19.8903 20.5652C19.7725 20.9325 19.6104 21.2567 19.39 21.5214C19.1697 21.7861 18.8898 21.9913 18.5517 22.1534C18.2135 22.3003 17.8171 22.3889 17.3612 22.3889H14.7889V16.4199H17.332V16.4351ZM17.2434 21.301C17.4346 21.301 17.6107 21.2718 17.8019 21.2124C17.978 21.1541 18.1401 21.0503 18.2718 20.9034C18.4036 20.7564 18.5214 20.5804 18.61 20.3448C18.6986 20.1093 18.7417 19.8446 18.7417 19.5064C18.7417 19.2126 18.7126 18.9327 18.6531 18.6984C18.5948 18.4628 18.491 18.2424 18.3593 18.0804C18.2275 17.9183 18.0503 17.7714 17.8299 17.6839C17.6095 17.5965 17.3449 17.5522 17.0219 17.5522H16.0809V21.3161H17.2422V21.301H17.2434Z" fill="white"/>
<path d="M25.3595 16.4349V17.538H22.2135V18.8171H25.1099V19.8316H22.2135V21.2868H25.4329V22.3899H20.9052V16.4209H25.3595V16.4361V16.4349Z" fill="white"/>
<path d="M29.8578 16.4346L32.092 22.4036H30.7242L30.2682 21.0801H28.0341L27.5642 22.4036H26.2407L28.49 16.4346H29.8578ZM29.9313 20.0948L29.1815 17.9038H29.1663L28.3874 20.0948H29.9313Z" fill="white"/>
<path d="M34.2235 16.4346V21.3005H37.1339V22.4036H32.9152V16.4346H34.2235Z" fill="white"/>
<path d="M8.59964 22.1709C10.1182 22.1709 11.3492 20.9399 11.3492 19.4214C11.3492 17.9029 10.1182 16.6719 8.59964 16.6719C7.08111 16.6719 5.8501 17.9029 5.8501 19.4214C5.8501 20.9399 7.08111 22.1709 8.59964 22.1709Z" fill="black"/>
<path d="M10.6728 33.2541C8.36518 33.2541 6.51233 31.3872 6.51233 29.0936V25.845C6.51233 24.6988 7.43817 23.7578 8.59955 23.7578C9.74578 23.7578 10.6868 24.6837 10.6868 25.845V33.2541H10.6716H10.6728Z" fill="black"/>
</svg>
