<svg width="68" height="39" viewBox="0 0 68 39" fill="none" xmlns="http://www.w3.org/2000/svg">
<path d="M8 6.33378V0.352832H10.3289C10.788 0.342942 11.2443 0.426997 11.6697 0.599834C12.0227 0.743192 12.3198 0.996961 12.5166 1.32319C12.7288 1.65391 12.8335 2.04213 12.8165 2.4347C12.8359 2.82752 12.731 3.21645 12.5166 3.5462C12.3126 3.86628 12.0178 4.11816 11.6697 4.26956C11.2443 4.44239 10.788 4.52645 10.3289 4.51656H8.56457L8.84686 4.19899V6.42199L8 6.33378ZM8.84686 4.19899L8.47636 3.77556H10.2406C10.6807 3.80441 11.1172 3.6797 11.4757 3.4227C11.6102 3.29571 11.7174 3.14257 11.7907 2.97268C11.864 2.80279 11.9017 2.61972 11.9017 2.4347C11.9017 2.24968 11.864 2.0666 11.7907 1.89671C11.7174 1.72682 11.6102 1.57368 11.4757 1.44669C11.1172 1.18969 10.6807 1.06498 10.2406 1.09383H8.47636L8.84686 0.670405V4.19899Z" fill="#0F2633"/>
<path d="M15.8687 6.36925C15.4513 6.37882 15.0384 6.28165 14.669 6.08696C14.3214 5.88633 14.0301 5.6011 13.8221 5.25775C13.6198 4.89061 13.5165 4.47718 13.5222 4.05803C13.5163 3.64446 13.6197 3.23666 13.8221 2.87595C14.026 2.53394 14.3186 2.2535 14.669 2.06438C15.0339 1.85645 15.4489 1.7527 15.8687 1.76445C16.2944 1.75035 16.7157 1.85415 17.0861 2.06438C17.4303 2.2476 17.7173 2.52235 17.9153 2.85831C18.1232 3.22321 18.227 3.6382 18.2152 4.05803C18.2298 4.47815 18.1258 4.89389 17.9153 5.25775C17.7188 5.60392 17.4323 5.89046 17.0861 6.08696C16.7109 6.28311 16.2919 6.38027 15.8687 6.36925ZM15.8687 5.66353C16.1454 5.66609 16.4183 5.59937 16.6627 5.46946C16.8901 5.33657 17.074 5.14041 17.1919 4.90489C17.3323 4.64479 17.4051 4.35359 17.4037 4.05803C17.4112 3.76735 17.3379 3.48028 17.1919 3.22881C17.0785 2.99462 16.893 2.80294 16.6627 2.68188C16.427 2.52548 16.1515 2.43977 15.8687 2.43488C15.6012 2.43505 15.3383 2.50514 15.1062 2.63821C14.8741 2.77129 14.6808 2.96272 14.5455 3.19353C14.4141 3.44994 14.3474 3.73464 14.3514 4.02274C14.3487 4.31635 14.4152 4.60647 14.5455 4.8696C14.683 5.09653 14.87 5.28951 15.0924 5.43418C15.328 5.57426 15.5949 5.65311 15.8687 5.66353Z" fill="#0F2633"/>
<path d="M20.1914 6.33379L18.5859 1.79956H19.3622L20.7737 5.96329H20.3502L21.9028 1.87013H22.6438L24.1787 5.96329H23.8788L25.4137 1.87013H26.1371L24.3728 6.40436H23.5965L22.1145 2.59349H22.3615L20.9148 6.33379H20.1914Z" fill="#0F2633"/>
<path d="M28.7833 6.3691C28.3432 6.38 27.9071 6.28309 27.513 6.08681C27.1581 5.89588 26.8645 5.6084 26.6662 5.2576C26.4503 4.8952 26.3403 4.4796 26.3486 4.05788C26.3426 3.64431 26.4461 3.23651 26.6485 2.8758C26.8336 2.53157 27.1159 2.24935 27.4601 2.06423C27.8111 1.85381 28.2155 1.74963 28.6245 1.7643C29.0309 1.7527 29.433 1.85018 29.7889 2.04659C30.1204 2.24253 30.3943 2.52248 30.5829 2.85816C30.773 3.24183 30.8697 3.665 30.8652 4.09316C30.8949 4.12388 30.9188 4.15975 30.9357 4.19902V4.32252H27.0014V3.74031H30.4241L30.0889 3.93438C30.0954 3.66498 30.0348 3.3982 29.9124 3.15809C29.7876 2.9367 29.6045 2.75367 29.3832 2.6288C29.1516 2.49885 28.89 2.43193 28.6245 2.43473C28.3593 2.43431 28.0983 2.50108 27.8659 2.6288C27.6445 2.75367 27.4614 2.9367 27.3366 3.15809C27.2121 3.40373 27.1514 3.67676 27.1602 3.95202V4.19902C27.1516 4.47716 27.2215 4.75209 27.3619 4.99234C27.5023 5.23259 27.7076 5.42846 27.9541 5.55753C28.2044 5.66734 28.4747 5.72404 28.748 5.72404C29.0213 5.72404 29.2917 5.66734 29.5419 5.55753C29.7615 5.4631 29.9596 5.32504 30.1242 5.15174L30.5652 5.68103C30.3593 5.92091 30.0993 6.10838 29.8066 6.22796C29.4777 6.34001 29.1303 6.38792 28.7833 6.3691Z" fill="#0F2633"/>
<path d="M31.9941 6.33376V1.79953H32.7881V3.03454L32.6999 2.71696C32.8211 2.41383 33.0463 2.16369 33.335 2.01125C33.6733 1.83897 34.0493 1.75406 34.4289 1.76425V2.55818H34.2348C34.0427 2.55036 33.851 2.58238 33.6719 2.65221C33.4927 2.72205 33.33 2.82819 33.1939 2.96397C33.0578 3.11725 32.9535 3.29594 32.8869 3.48974C32.8203 3.68353 32.7927 3.8886 32.8057 4.09311V6.3514L31.9941 6.33376Z" fill="#0F2633"/>
<path d="M37.4106 6.36915C36.9646 6.38223 36.5223 6.28528 36.1227 6.08687C35.7711 5.89149 35.4785 5.60506 35.2758 5.25765C35.0735 4.89052 34.9701 4.47708 34.9759 4.05793C34.9618 3.64344 35.0658 3.23349 35.2758 2.87586C35.4594 2.53644 35.7344 2.25528 36.0697 2.06428C36.4226 1.85838 36.8257 1.75454 37.2342 1.76435C37.6406 1.75276 38.0426 1.85023 38.3986 2.04664C38.73 2.24259 39.0039 2.52254 39.1925 2.85821C39.3909 3.2389 39.4881 3.66416 39.4748 4.09322V4.19908C39.4834 4.2398 39.4834 4.28186 39.4748 4.32258H35.611V3.74036H39.0337L38.6985 3.93443C38.7051 3.66504 38.6444 3.39825 38.5221 3.15814C38.4043 2.93744 38.227 2.7541 38.0105 2.62886C37.7725 2.49896 37.5053 2.43215 37.2342 2.43478C36.969 2.43437 36.708 2.50114 36.4755 2.62886C36.2589 2.7541 36.0817 2.93744 35.9639 3.15814C35.834 3.40245 35.7672 3.67539 35.7698 3.95208V4.19908C35.7613 4.47722 35.8312 4.75215 35.9716 4.9924C36.112 5.23265 36.3172 5.42852 36.5637 5.55758C36.8331 5.68807 37.129 5.75449 37.4282 5.75165C37.6763 5.75259 37.9221 5.70463 38.1516 5.61051C38.375 5.52317 38.5745 5.38411 38.7338 5.20472L39.1925 5.73401C38.9798 5.97417 38.714 6.16144 38.4162 6.28094C38.09 6.37548 37.7484 6.40545 37.4106 6.36915Z" fill="#0F2633"/>
<path d="M42.4744 6.36909C42.0683 6.37816 41.6669 6.28084 41.31 6.0868C40.9657 5.90168 40.6835 5.61946 40.4984 5.27523C40.2864 4.90552 40.1825 4.48373 40.1985 4.05787C40.182 3.63754 40.2861 3.22127 40.4984 2.85815C40.6835 2.51392 40.9657 2.2317 41.31 2.04658C41.6669 1.85254 42.0683 1.75522 42.4744 1.76429C42.8364 1.75994 43.1939 1.84477 43.5153 2.01129C43.8254 2.20149 44.0808 2.46899 44.2563 2.78758C44.4526 3.18165 44.5495 3.61775 44.5386 4.05787C44.5489 4.50358 44.4521 4.94524 44.2563 5.3458C44.0928 5.66728 43.8421 5.93628 43.533 6.12209C43.2088 6.29834 42.8431 6.38368 42.4744 6.36909ZM42.4744 5.66337C42.7452 5.66374 43.0119 5.59706 43.2507 5.4693C43.4789 5.33177 43.6674 5.1372 43.7976 4.90473C43.9319 4.64303 43.9986 4.35192 43.9917 4.05787C44.0056 3.76878 43.9383 3.48156 43.7976 3.22865C43.6722 2.9972 43.4821 2.80718 43.2507 2.68172C43.0153 2.5437 42.7473 2.47095 42.4744 2.47095C42.2015 2.47095 41.9335 2.5437 41.6981 2.68172C41.4667 2.80718 41.2767 2.9972 41.1512 3.22865C41.0198 3.48506 40.9531 3.76976 40.9571 4.05787C40.9544 4.35148 41.0209 4.64159 41.1512 4.90473C41.2814 5.1372 41.4699 5.33177 41.6981 5.4693C41.9578 5.60891 42.2504 5.67595 42.545 5.66337H42.4744ZM44.027 6.3338V5.0988V4.05787V2.99929V0H44.8386V6.3338H44.027Z" fill="#0F2633"/>
<path d="M48.7197 6.33381V0H49.5489V2.99929L49.4607 4.05787V5.0988V6.33381H48.7197ZM51.1192 6.33381C50.7565 6.34438 50.3975 6.25918 50.0782 6.0868C49.7691 5.901 49.5184 5.632 49.3549 5.31052C49.1506 4.91297 49.0534 4.46911 49.0726 4.02258C49.0617 3.58247 49.1586 3.14637 49.3549 2.7523C49.5248 2.42958 49.7814 2.16072 50.0959 1.97601C50.4125 1.81358 50.7633 1.72891 51.1192 1.72901C51.5314 1.7151 51.9398 1.81262 52.3012 2.01129C52.6413 2.20193 52.9222 2.48278 53.1128 2.82287C53.3175 3.18908 53.421 3.60315 53.4127 4.02258C53.4208 4.4476 53.3173 4.8673 53.1128 5.23995C52.9222 5.58004 52.6413 5.86088 52.3012 6.05152C51.9433 6.2625 51.5347 6.37227 51.1192 6.36909V6.33381ZM51.1192 5.62809C51.39 5.62845 51.6567 5.56178 51.8954 5.43402C52.1237 5.29649 52.3122 5.10192 52.4424 4.86944C52.5727 4.60631 52.6391 4.31619 52.6365 4.02258C52.6404 3.73448 52.5738 3.44978 52.4424 3.19337C52.3169 2.96191 52.1269 2.7719 51.8954 2.64644C51.6615 2.50476 51.3926 2.43142 51.1192 2.43472C50.8455 2.42949 50.576 2.50297 50.3429 2.64644C50.1074 2.76649 49.916 2.95793 49.7959 3.19337C49.65 3.44484 49.5767 3.73191 49.5842 4.02258C49.5828 4.31815 49.6556 4.60935 49.7959 4.86944C49.9211 5.10563 50.1108 5.30141 50.3429 5.43402C50.5619 5.56781 50.8101 5.64651 51.0662 5.66337L51.1192 5.62809Z" fill="#0F2633"/>
<path d="M54.6127 8.02759C54.3966 8.02695 54.1821 7.9912 53.9775 7.92173C53.7866 7.84993 53.608 7.74874 53.4482 7.6218L53.8011 7.0043C53.9148 7.10896 54.0463 7.19259 54.1892 7.2513C54.3289 7.27982 54.473 7.27982 54.6127 7.2513C54.7909 7.25808 54.9658 7.20186 55.1067 7.09251C55.2775 6.94723 55.4056 6.75815 55.4772 6.54558L55.7595 5.92808L55.8477 5.82222L57.612 1.71143H58.4235L56.2358 6.68673C56.123 6.95803 55.9747 7.21314 55.7947 7.44537C55.6411 7.61103 55.4549 7.74317 55.2478 7.83352C55.0503 7.93783 54.8348 8.00369 54.6127 8.02759ZM55.6889 6.47501L53.6247 1.79964H54.4715L56.2358 5.83987L55.6889 6.47501Z" fill="#0F2633"/>
<path fill-rule="evenodd" clip-rule="evenodd" d="M16.869 25.4032H22.1619V33.9953C20.9457 35.3679 19.4346 36.4476 17.7419 37.1533C16.0493 37.8591 14.2188 38.1728 12.3877 38.0708C10.6475 38.0593 8.92797 37.6918 7.33504 36.9909C5.74211 36.29 4.30945 35.2705 3.12521 33.9953C1.05405 31.6181 -0.059029 28.5555 0.00241465 25.4032C-0.0104322 23.7926 0.294632 22.1952 0.900127 20.7027C1.50562 19.2101 2.39965 17.8517 3.531 16.7052C4.67492 15.5239 6.04633 14.5865 7.56247 13.9498C9.07861 13.313 10.708 12.99 12.3524 13.0002C15.9696 13.0229 19.4555 14.3583 22.1619 16.7582L18.6333 20.7808C17.905 19.883 16.9812 19.1636 15.9324 18.6774C14.8836 18.1912 13.7376 17.9512 12.5818 17.9755C10.724 18.0113 8.95518 18.7784 7.65944 20.1103C6.93061 20.7869 6.348 21.6056 5.94748 22.5159C5.54696 23.4261 5.33702 24.4087 5.33057 25.4032C5.30966 26.4181 5.49602 27.4266 5.87825 28.367C6.26048 29.3074 6.83055 30.16 7.55358 30.8725C8.82024 32.1396 10.4962 32.915 12.2819 33.0602C13.8717 33.1458 15.4554 32.8047 16.869 32.0722V25.4032Z" fill="#184869"/>
<path d="M29.5897 19.0342H24.3145V38.0532H29.5897V19.0342Z" fill="#184869"/>
<path fill-rule="evenodd" clip-rule="evenodd" d="M39.4167 38.0532L31.9185 19.0342H37.6877L42.1161 31.0137L46.8444 19.0342H52.3313L44.8331 38.0532H39.4167Z" fill="#184869"/>
<path fill-rule="evenodd" clip-rule="evenodd" d="M59.5123 22.9156V31.0137C59.5837 31.6744 59.8904 32.2874 60.3762 32.7408C60.862 33.1943 61.4947 33.4579 62.1587 33.4837C62.5977 33.4708 63.0278 33.3576 63.4162 33.1527C63.8046 32.9478 64.1409 32.6567 64.3994 32.3016C65.2948 33.1988 66.2433 34.0413 67.2399 34.8246C66.4738 35.7642 65.5222 36.5359 64.4446 37.0914C63.367 37.6469 62.1864 37.9743 60.9766 38.0532C60.0949 38.0915 59.2149 37.9467 58.392 37.6279C57.569 37.309 56.8211 36.8231 56.1954 36.2007C55.5192 35.5256 54.996 34.7131 54.6612 33.8182C54.3263 32.9233 54.1877 31.9669 54.2547 31.0137V13.0532H59.5476V19.0342H64.1347V22.9156H59.5123Z" fill="#184869"/>
<path d="M52.1373 13.0532H24.3145V16.9347H52.1373V13.0532Z" fill="#7DBDA2"/>
</svg>
