<svg width="125" height="25" viewBox="0 0 125 25" fill="none" xmlns="http://www.w3.org/2000/svg">
<g clip-path="url(#clip0_257_17)">
<path fill-rule="evenodd" clip-rule="evenodd" d="M74.1 12.35H79.3929V20.9421C78.1766 22.3147 76.6656 23.3943 74.9729 24.1001C73.2802 24.8059 71.4498 25.1196 69.6187 25.0176C67.8784 25.006 66.1589 24.6385 64.566 23.9376C62.9731 23.2367 61.5404 22.2173 60.3562 20.9421C58.285 18.5648 57.1719 15.5023 57.2334 12.35C57.2205 10.7393 57.5256 9.14199 58.1311 7.64945C58.7366 6.1569 59.6306 4.79849 60.762 3.65202C61.9059 2.47067 63.2773 1.53332 64.7934 0.896537C66.3096 0.259758 67.939 -0.063247 69.5834 -0.0529856C73.2006 -0.0303616 76.6864 1.30505 79.3929 3.70495L75.8643 7.72754C75.136 6.82979 74.2122 6.11036 73.1634 5.62418C72.1146 5.138 70.9685 4.89794 69.8128 4.92231C67.9549 4.95811 66.1861 5.72521 64.8904 7.05711C64.1616 7.73372 63.579 8.55236 63.1784 9.46263C62.7779 10.3729 62.568 11.3555 62.5615 12.35C62.5406 13.3649 62.727 14.3734 63.1092 15.3138C63.4914 16.2542 64.0615 17.1068 64.7845 17.8193C66.0512 19.0864 67.7271 19.8618 69.5128 20.007C71.1026 20.0926 72.6864 19.7515 74.1 19.019V12.35Z" fill="#184869"/>
<path d="M86.8206 5.98096H81.5454V25H86.8206V5.98096Z" fill="#184869"/>
<path fill-rule="evenodd" clip-rule="evenodd" d="M96.6476 25L89.1494 5.98096H94.9186L99.347 17.9605L104.075 5.98096H109.562L102.064 25H96.6476Z" fill="#184869"/>
<path fill-rule="evenodd" clip-rule="evenodd" d="M116.743 9.86239V17.9605C116.815 18.6212 117.121 19.2342 117.607 19.6876C118.093 20.1411 118.726 20.4047 119.39 20.4305C119.829 20.4176 120.259 20.3044 120.647 20.0995C121.036 19.8946 121.372 19.6034 121.63 19.2484C122.526 20.1455 123.474 20.988 124.471 21.7713C123.705 22.711 122.753 23.4827 121.676 24.0382C120.598 24.5937 119.417 24.9211 118.208 25C117.326 25.0383 116.446 24.8935 115.623 24.5746C114.8 24.2558 114.052 23.7699 113.426 23.1475C112.75 22.4724 112.227 21.6599 111.892 20.765C111.557 19.8701 111.419 18.9136 111.486 17.9605V0H116.779V5.98095H121.366V9.86239H116.743Z" fill="#184869"/>
<path d="M109.368 0H81.5454V3.88144H109.368V0Z" fill="#7DBDA2"/>
<path d="M0 23.3062V17.3252H2.32886C2.78798 17.3154 3.24427 17.3994 3.66972 17.5722C4.02271 17.7156 4.3198 17.9694 4.51658 18.2956C4.72878 18.6263 4.83353 19.0145 4.81651 19.4071C4.8359 19.7999 4.73095 20.1889 4.51658 20.5186C4.31264 20.8387 4.01775 21.0906 3.66972 21.242C3.24427 21.4148 2.78798 21.4989 2.32886 21.489H0.564573L0.84686 21.1714V23.3944L0 23.3062ZM0.84686 21.1714L0.476359 20.748H2.24065C2.68075 20.7768 3.11723 20.6521 3.47565 20.3951C3.61021 20.2681 3.71742 20.115 3.79069 19.9451C3.86396 19.7752 3.90175 19.5921 3.90175 19.4071C3.90175 19.2221 3.86396 19.039 3.79069 18.8691C3.71742 18.6992 3.61021 18.5461 3.47565 18.4191C3.11723 18.1621 2.68075 18.0374 2.24065 18.0662H0.476359L0.84686 17.6428V21.1714Z" fill="#0F2633"/>
<path d="M7.86872 23.3417C7.45131 23.3512 7.03836 23.2541 6.669 23.0594C6.32136 22.8587 6.03005 22.5735 5.82214 22.2302C5.61983 21.863 5.51647 21.4496 5.52222 21.0304C5.51626 20.6169 5.61973 20.2091 5.82214 19.8484C6.026 19.5064 6.31863 19.2259 6.669 19.0368C7.03391 18.8289 7.4489 18.7251 7.86872 18.7369C8.29439 18.7228 8.71568 18.8266 9.08608 19.0368C9.43033 19.22 9.71729 19.4948 9.9153 19.8307C10.1232 20.1956 10.227 20.6106 10.2152 21.0304C10.2298 21.4506 10.1258 21.8663 9.9153 22.2302C9.71879 22.5763 9.43226 22.8629 9.08608 23.0594C8.71093 23.2555 8.29192 23.3527 7.86872 23.3417ZM7.86872 22.6359C8.14541 22.6385 8.41834 22.5718 8.66265 22.4419C8.89009 22.309 9.07398 22.1128 9.19194 21.8773C9.33233 21.6172 9.40513 21.326 9.40366 21.0304C9.41122 20.7398 9.33793 20.4527 9.19194 20.2012C9.0785 19.967 8.893 19.7753 8.66265 19.6543C8.427 19.4979 8.15151 19.4122 7.86872 19.4073C7.60118 19.4075 7.33832 19.4776 7.10621 19.6106C6.87411 19.7437 6.68082 19.9351 6.5455 20.1659C6.41407 20.4224 6.34744 20.707 6.35143 20.9952C6.34875 21.2888 6.41523 21.5789 6.5455 21.842C6.68304 22.0689 6.86999 22.2619 7.09243 22.4066C7.32798 22.5467 7.59487 22.6255 7.86872 22.6359Z" fill="#0F2633"/>
<path d="M12.1914 23.3062L10.5859 18.772H11.3622L12.7737 22.9357H12.3502L13.9028 18.8425H14.6438L16.1787 22.9357H15.8788L17.4137 18.8425H18.1371L16.3728 23.3768H15.5965L14.1145 19.5659H14.3615L12.9148 23.3062H12.1914Z" fill="#0F2633"/>
<path d="M20.7833 23.3415C20.3432 23.3524 19.9071 23.2555 19.513 23.0592C19.1581 22.8683 18.8645 22.5808 18.6662 22.23C18.4503 21.8676 18.3403 21.452 18.3486 21.0303C18.3426 20.6167 18.4461 20.2089 18.6485 19.8482C18.8336 19.504 19.1159 19.2218 19.4601 19.0366C19.8111 18.8262 20.2155 18.722 20.6245 18.7367C21.0309 18.7251 21.433 18.8226 21.7889 19.019C22.1204 19.2149 22.3943 19.4949 22.5829 19.8306C22.773 20.2142 22.8697 20.6374 22.8652 21.0656C22.8949 21.0963 22.9188 21.1322 22.9357 21.1714V21.2949H19.0014V20.7127H22.4241L22.0889 20.9068C22.0954 20.6374 22.0348 20.3706 21.9124 20.1305C21.7876 19.9091 21.6045 19.7261 21.3832 19.6012C21.1516 19.4713 20.89 19.4043 20.6245 19.4071C20.3593 19.4067 20.0983 19.4735 19.8659 19.6012C19.6445 19.7261 19.4614 19.9091 19.3366 20.1305C19.2121 20.3761 19.1514 20.6492 19.1602 20.9244V21.1714C19.1516 21.4496 19.2215 21.7245 19.3619 21.9648C19.5023 22.205 19.7076 22.4009 19.9541 22.5299C20.2044 22.6398 20.4747 22.6964 20.748 22.6964C21.0213 22.6964 21.2917 22.6398 21.5419 22.5299C21.7615 22.4355 21.9596 22.2975 22.1242 22.1242L22.5652 22.6534C22.3593 22.8933 22.0993 23.0808 21.8066 23.2004C21.4777 23.3124 21.1303 23.3603 20.7833 23.3415Z" fill="#0F2633"/>
<path d="M23.9941 23.3062V18.7719H24.7881V20.0069L24.6999 19.6894C24.8211 19.3862 25.0463 19.1361 25.335 18.9837C25.6733 18.8114 26.0493 18.7265 26.4289 18.7367V19.5306H26.2348C26.0427 19.5228 25.851 19.5548 25.6719 19.6246C25.4927 19.6945 25.33 19.8006 25.1939 19.9364C25.0578 20.0897 24.9535 20.2684 24.8869 20.4621C24.8203 20.6559 24.7927 20.861 24.8057 21.0655V23.3238L23.9941 23.3062Z" fill="#0F2633"/>
<path d="M29.4106 23.3416C28.9646 23.3546 28.5223 23.2577 28.1227 23.0593C27.7711 22.8639 27.4785 22.5775 27.2758 22.2301C27.0735 21.8629 26.9701 21.4495 26.9759 21.0303C26.9618 20.6159 27.0658 20.2059 27.2758 19.8483C27.4594 19.5089 27.7344 19.2277 28.0697 19.0367C28.4226 18.8308 28.8257 18.727 29.2342 18.7368C29.6406 18.7252 30.0426 18.8226 30.3986 19.0191C30.73 19.215 31.0039 19.4949 31.1925 19.8306C31.3909 20.2113 31.4881 20.6366 31.4748 21.0656V21.1715C31.4834 21.2122 31.4834 21.2543 31.4748 21.295H27.611V20.7128H31.0337L30.6985 20.9068C30.7051 20.6374 30.6444 20.3707 30.5221 20.1306C30.4043 19.9098 30.227 19.7265 30.0105 19.6013C29.7725 19.4714 29.5053 19.4046 29.2342 19.4072C28.969 19.4068 28.708 19.4735 28.4755 19.6013C28.2589 19.7265 28.0817 19.9098 27.9639 20.1306C27.834 20.3749 27.7672 20.6478 27.7698 20.9245V21.1715C27.7613 21.4496 27.8312 21.7246 27.9716 21.9648C28.112 22.2051 28.3172 22.4009 28.5637 22.53C28.8331 22.6605 29.129 22.7269 29.4282 22.7241C29.6763 22.725 29.9221 22.677 30.1516 22.5829C30.375 22.4956 30.5745 22.3565 30.7338 22.1771L31.1925 22.7064C30.9798 22.9466 30.714 23.1338 30.4162 23.2534C30.09 23.3479 29.7484 23.3779 29.4106 23.3416Z" fill="#0F2633"/>
<path d="M34.4744 23.3415C34.0683 23.3506 33.6669 23.2533 33.31 23.0592C32.9657 22.8741 32.6835 22.5919 32.4984 22.2476C32.2864 21.8779 32.1825 21.4561 32.1985 21.0303C32.182 20.61 32.2861 20.1937 32.4984 19.8306C32.6835 19.4863 32.9657 19.2041 33.31 19.019C33.6669 18.8249 34.0683 18.7276 34.4744 18.7367C34.8364 18.7324 35.1939 18.8172 35.5153 18.9837C35.8254 19.1739 36.0808 19.4414 36.2563 19.76C36.4526 20.1541 36.5495 20.5902 36.5386 21.0303C36.5489 21.476 36.4521 21.9177 36.2563 22.3182C36.0928 22.6397 35.8421 22.9087 35.533 23.0945C35.2088 23.2707 34.8431 23.3561 34.4744 23.3415ZM34.4744 22.6358C34.7452 22.6361 35.0119 22.5695 35.2507 22.4417C35.4789 22.3042 35.6674 22.1096 35.7976 21.8771C35.9319 21.6154 35.9986 21.3243 35.9917 21.0303C36.0056 20.7412 35.9383 20.454 35.7976 20.2011C35.6722 19.9696 35.4821 19.7796 35.2507 19.6541C35.0153 19.5161 34.7473 19.4434 34.4744 19.4434C34.2015 19.4434 33.9335 19.5161 33.6981 19.6541C33.4667 19.7796 33.2767 19.9696 33.1512 20.2011C33.0198 20.4575 32.9531 20.7422 32.9571 21.0303C32.9544 21.3239 33.0209 21.614 33.1512 21.8771C33.2814 22.1096 33.4699 22.3042 33.6981 22.4417C33.9578 22.5813 34.2504 22.6484 34.545 22.6358H34.4744ZM36.027 23.3062V22.0712V21.0303V19.9717V16.9724H36.8386V23.3062H36.027Z" fill="#0F2633"/>
<path d="M40.7197 23.3062V16.9724H41.5489V19.9717L41.4607 21.0303V22.0712V23.3062H40.7197ZM43.1192 23.3062C42.7565 23.3168 42.3975 23.2316 42.0782 23.0592C41.7691 22.8734 41.5184 22.6044 41.3549 22.2829C41.1506 21.8854 41.0534 21.4415 41.0726 20.995C41.0617 20.5549 41.1586 20.1188 41.3549 19.7247C41.5248 19.402 41.7814 19.1331 42.0959 18.9484C42.4125 18.786 42.7633 18.7013 43.1192 18.7014C43.5314 18.6875 43.9398 18.785 44.3012 18.9837C44.6413 19.1743 44.9222 19.4552 45.1128 19.7953C45.3175 20.1615 45.421 20.5756 45.4127 20.995C45.4208 21.42 45.3173 21.8397 45.1128 22.2124C44.9222 22.5524 44.6413 22.8333 44.3012 23.0239C43.9433 23.2349 43.5347 23.3447 43.1192 23.3415V23.3062ZM43.1192 22.6005C43.39 22.6009 43.6567 22.5342 43.8954 22.4064C44.1237 22.2689 44.3122 22.0743 44.4424 21.8419C44.5727 21.5787 44.6391 21.2886 44.6365 20.995C44.6404 20.7069 44.5738 20.4222 44.4424 20.1658C44.3169 19.9343 44.1269 19.7443 43.8954 19.6188C43.6615 19.4772 43.3926 19.4038 43.1192 19.4071C42.8455 19.4019 42.576 19.4754 42.3429 19.6188C42.1074 19.7389 41.916 19.9303 41.7959 20.1658C41.65 20.4173 41.5767 20.7043 41.5842 20.995C41.5828 21.2906 41.6556 21.5818 41.7959 21.8419C41.9211 22.078 42.1108 22.2738 42.3429 22.4064C42.5619 22.5402 42.8101 22.6189 43.0662 22.6358L43.1192 22.6005Z" fill="#0F2633"/>
<path d="M46.6127 25C46.3966 24.9994 46.1821 24.9636 45.9775 24.8941C45.7866 24.8223 45.608 24.7211 45.4482 24.5942L45.8011 23.9767C45.9148 24.0814 46.0463 24.165 46.1892 24.2237C46.3289 24.2522 46.473 24.2522 46.6127 24.2237C46.7909 24.2305 46.9658 24.1743 47.1067 24.0649C47.2775 23.9196 47.4056 23.7306 47.4772 23.518L47.7595 22.9005L47.8477 22.7946L49.612 18.6838H50.4235L48.2358 23.6591C48.123 23.9304 47.9747 24.1856 47.7947 24.4178C47.6411 24.5834 47.4549 24.7156 47.2478 24.8059C47.0503 24.9102 46.8348 24.9761 46.6127 25ZM47.6889 23.4474L45.6247 18.7721H46.4715L48.2358 22.8123L47.6889 23.4474Z" fill="#0F2633"/>
</g>
<defs>
<clipPath id="clip0_257_17">
<rect width="124.471" height="25" fill="white"/>
</clipPath>
</defs>
</svg>
